<svg id="Capa_1" data-name="Capa 1" xmlns="http://www.w3.org/2000/svg" viewBox="0 0 141.73 141.73"><defs><style>.cls-1{fill:#f7de5c;}.cls-2{fill:#fefefe;}</style></defs><title>alergenos</title><path class="cls-1" d="M128,70.87h0a57.09,57.09,0,1,1-57.19-57A57.09,57.09,0,0,1,128,70.87Z"/><path class="cls-2" d="M60.74,74.62h0c0,5.64-6.47,11.48-18.57,9.39-8.35-1.25-13-3.75-13-9.39a10.38,10.38,0,0,1,.42-2.5c.84,3.13,1.88,7.09,12.94,7.72,10.23.63,16.7-1.88,18.16-5.22Zm4.39-4.17h0a20,20,0,1,0-40.08,0c0,11.06,7.1,15,18,16.9C55.32,89.44,65.13,81.51,65.13,70.45Z"/><path class="cls-2" d="M105.62,53.75h0A15.29,15.29,0,0,1,90,69c-8.77,0-16.7-4.8-16.7-13.15a18.31,18.31,0,0,1,.41-3.55c.84,4.59,4.81,11.48,15.87,12.32C99.78,65.44,104.16,58.76,105.62,53.75ZM110,51.87h0c0-10.85-10-21.7-21.08-21.7S69.09,42.9,69.09,54,78.9,71.91,90,71.91A20,20,0,0,0,110,51.87Z"/><path class="cls-2" d="M82.66,77.13h0c-17.74,12.1-12.73,24.83-9.6,29.63-5.85-4.17-8.14-12.1-5.43-19.41C70.14,81.09,75.36,76.08,82.66,77.13Zm4.59-1h0c-9.39-3.55-17.74.84-21.5,10.44s.63,20.45,10,24.21c9.19,3.55,20-4.59,23.8-14.19C103.32,86.73,96.44,79.84,87.25,76.08Z"/><path class="cls-1" d="M91.84,33.72h0c2.5.21,4.39-.21,4.6-.84,0-.62-1.89-1.25-4.39-1.25-2.5-.21-4.38,0-4.38.63C87.46,32.88,89.55,33.51,91.84,33.72Z"/><path class="cls-1" d="M45.51,53.75h0c2.5,0,4.38-.63,4.38-1.25s-1.88-1-4.38-1-4.39.41-4.39,1S43,53.75,45.51,53.75Z"/><path class="cls-1" d="M92.68,102.17h0c-1.46,1.88-2.3,3.76-1.88,4.18.63.41,2.09-.84,3.54-2.72,1.47-2.08,2.31-4,1.89-4.38C95.6,99,94.14,100.29,92.68,102.17Z"/></svg>